#!OML:ASF F:\VICON\USERDATA\INSTALL\rory3\rory3.ASF
:FULLY-SPECIFIED
:DEGREES
78
root 0.6602607746188979 17.82710797755535 45.23095668618574 -3.2647265644627157 -1.9245586605515435 1.716007797352011
lfemur 0.8659583029368711 -3.4509355425471284 -27.101589812269182
ltibia 23.263468466477846
lfoot -15.276126435845356 3.1112181720060796
ltoes 1.8291435550189754
rfemur -28.497190687638202 -0.07901383168307419 20.085519862381346
rtibia 51.33587228059247
rfoot -8.571484072118658 -10.065436148302215
rtoes 2.534045162347819
lowerback 10.178553251785845 0.0752136083649515 -2.3701447299224947
upperback 0.8095738770415177 -0.1463923126660216 0.8044726235264169
thorax -4.847254061373733 -0.013492534662349565 2.2265884641265017
lowerneck -16.45661461271178 -2.7732550521192736 -3.65598027550908
upperneck 20.452793451022504 -3.5345565796939176 2.3030804620450884
head 9.17815892981838 -1.6695147257974585 0.8938322649260957
lclavicle -2.5179542830660675e-15 -2.2973000596215273e-16
lhumerus -25.370518997292205 -1.4207223517361534 82.35947033026474
lradius 24.00965082119663
lwrist 6.259743095257397
lhand -28.26435351084164 21.798854091364618
lfingers 7.1250199999999975
lthumb -1.6411455596048907 51.778055395563754
rclavicle -2.5179542830660675e-15 -2.2973000596215273e-16
rhumerus -29.098309271336507 -16.412914821736493 -80.73053482568082
rradius 27.11232558995943
rwrist 4.514255607913983
rhand -16.720413781242335 22.473173446025218
rfingers 7.1250199999999975
rthumb 9.505115161769137 -7.185392813673561
79
root 0.601801886188813 17.803505628039037 47.57194720323631 -2.5312712918480935 -0.7989414910724602 2.3756553607091395
lfemur 5.307504225257704 -3.0453553310212897 -27.58187660780664
ltibia 19.140898539106995
lfoot -15.393342494583685 2.6416362124819646
ltoes 0.6775500993285752
rfemur -28.893736716552354 1.9909106511048456 18.710386797280492
rtibia 38.16624898535245
rfoot -8.990484077060664 -13.60901113475174
rtoes 1.1009601057065117
lowerback 9.894255745517945 -0.3436225421115279 -3.1902368592425345
upperback 0.7065968215462382 -0.7786555123859336 0.8930738197960547
thorax -4.734563547468284 -0.3116666368729788 2.901638991119725
lowerneck -16.51567285705124 -2.795522720851618 -3.8345127660897163
upperneck 20.314064629639038 -3.5643528315373234 2.5584900922215987
head 9.138054183507405 -1.6739542241315275 0.9911406407406191
lclavicle -2.1235741568023282e-15 3.3317162707411535e-17
lhumerus -22.73783037145944 -3.160119533237297 82.24202288910386
lradius 26.23584731635237
lwrist 7.412220682963868
lhand -28.107353211166767 22.414683727524533
lfingers 7.1250199999999975
lthumb -1.489566178713961 52.395471243255486
rclavicle -2.1235741568023282e-15 3.3317162707411535e-17
rhumerus -29.686984542495498 -16.264922337106118 -80.54728380383459
rradius 26.919214679850555
rwrist 4.576022222044329
rhand -16.564989800154827 23.062616487274813
rfingers 7.1250199999999975
rthumb 9.655114430704899 -6.583653143729885
80
root 0.5182146113342012 17.754614585411392 49.26062488851957 -1.830192884400872 0.16446095232717406 2.8891318143147804
lfemur 9.766908855180684 -2.9033668209749264 -27.76202496828898
ltibia 15.506986026756461
lfoot -15.29107037185285 1.7672013096146066
ltoes -1.6456219207392173
rfemur -28.415285064929876 4.290901041572675 17.381570249565513
rtibia 26.15662286933066
rfoot -9.112994919762277 -16.196112287380664
rtoes -0.4485965163572545
lowerback 9.536328656113103 -0.7072789199083015 -3.9116905809237634
upperback 0.6178638506012488 -1.3192616267424033 0.990438431759546
thorax -4.583717582281091 -0.5679074088408081 3.5034322077960445
lowerneck -16.603212294752964 -2.7879377956627827 -3.895365030148755
upperneck 20.236572030709254 -3.559481793471706 2.6884018606727462
head 9.126124071315006 -1.66493640948321 1.036155933453543
lclavicle -1.860285009153771e-15 2.0892463334539458e-16
lhumerus -20.38429327499493 -4.514911979824808 82.04768018573945
lradius 28.24100180398844
lwrist 8.278462075885553
lhand -28.167067710443543 22.580477385521124
lfingers 7.1250199999999975
lthumb -1.5472530376715246 52.55797794606007
rclavicle -1.860285009153771e-15 2.0892463334539458e-16
rhumerus -30.276477549462015 -16.972782051383845 -79.97169392339488
rradius 26.17417572056077
rwrist 5.445294476017485
rhand -16.524769774682714 23.57913674503057
rfingers 7.1250199999999975
rthumb 9.693945628317847 -6.0854983393077635
81
root 0.415766515671338 17.678173063289933 49.772649869239544 -1.402658778226387 0.7406923118955206 3.007598267754188
lfemur 13.181384830754393 -3.3442737774614955 -27.74825700121681
ltibia 13.81914888577974
lfoot -15.171218941024357 0.59090258370994
ltoes -5.494786000639067
rfemur -28.12452688750119 5.642340471204229 16.797489850222533
rtibia 19.492418912450983
rfoot -8.8482123751084 -15.995417819451713
rtoes -1.8795104118471015
lowerback 9.258021999703262 -0.9991830987796869 -4.367895205248196
upperback 0.5678442382581276 -1.733876354826263 1.1340078616460976
thorax -4.467744580428922 -0.7667850691099402 3.889047103422278
lowerneck -16.729615784817312 -2.768831558278775 -3.9072001019338822
upperneck 20.261089043218746 -3.533934889932229 2.6556708232924695
head 9.155106113982388 -1.652286984306245 1.0282931090864342
lclavicle -2.061095249694441e-15 7.497389328028939e-17
lhumerus -18.81446033458646 -5.402880785830218 81.92633047390503
lradius 29.605654111905398
lwrist 8.698807831829212
lhand -28.596707579169255 22.058735832891216
lfingers 7.1250199999999975
lthumb -1.9621638939533068 52.028634797447104
rclavicle -2.061095249694441e-15 7.497389328028939e-17
rhumerus -30.969573962967647 -18.691599557075854 -79.00761198904218
rradius 24.89247572154928
rwrist 6.967348291276805
rhand -16.68988972864785 23.832929548755473
rfingers 7.1250199999999975
rthumb 9.5346139228988 -5.864745078032463
